<svg  viewBox="0 0 672 690" fill="none" xmlns="http://www.w3.org/2000/svg">
<g clip-path="url(#clip0_107_7)">
<path d="M532.315 214.248C559.044 267.449 553.403 335.144 544.822 389.612C536.548 444.502 525.642 486.585 506.324 523.305C487.364 560.077 460.041 591.116 425.581 612.836C391.531 634.238 349.985 646.269 301.815 650.561C253.595 655.222 198.035 652.04 146.387 625.71C94.6879 599.749 46.5425 550.588 26.7217 489.733C7.31032 428.56 16.2234 355.694 55.0558 310.141C93.4786 264.904 161.821 246.98 221.992 213.94C282.522 180.951 334.931 132.477 390.889 127.435C446.797 122.762 505.895 161.469 532.315 214.248Z" fill="#F1C21B"/>
</g>
<defs>
<clipPath id="clip0_107_7">
<rect width="670.778" height="689.946" fill="white" transform="translate(0.419861)"/>
</clipPath>
</defs>
</svg>
